<svg width="24px" height="24px" viewBox="0 0 24 24" fill="none" xmlns="http://www.w3.org/2000/svg">
<path fill-rule="evenodd" clip-rule="evenodd" d="M12 3.5C7.30558 3.5 3.5 7.30558 3.5 12C3.5 13.5799 3.93054 15.0576 4.68039 16.324C4.82109 16.5617 4.74251 16.8683 4.5049 17.009C4.26729 17.1497 3.96061 17.0712 3.81992 16.8335C2.98125 15.4171 2.5 13.764 2.5 12C2.5 6.75329 6.75329 2.5 12 2.5C17.2467 2.5 21.5 6.75329 21.5 12C21.5 17.2467 17.2467 21.5 12 21.5C9.41171 21.5 7.06433 20.4642 5.3514 18.7857C5.24102 18.6776 5.18686 18.5244 5.20469 18.3709C5.22251 18.2174 5.31033 18.0808 5.44256 18.0008L13.111 13.3621L16.0946 8.3816L10.9439 11.1098L7.81033 15.6802C7.65418 15.908 7.34296 15.966 7.11521 15.8098C6.88746 15.6537 6.82941 15.3425 6.98557 15.1147L10.1887 10.4428C10.2344 10.3762 10.2956 10.3216 10.367 10.2837L17.2108 6.65874C17.4091 6.5537 17.6531 6.59365 17.8076 6.75646C17.962 6.91926 17.9891 7.16502 17.8737 7.35754L13.905 13.9825C13.8631 14.0525 13.8047 14.1112 13.7349 14.1534L6.5337 18.5095C8.01177 19.7521 9.91814 20.5 12 20.5C16.6944 20.5 20.5 16.6944 20.5 12C20.5 7.30558 16.6944 3.5 12 3.5Z" fill="black"/>
</svg>
